<svg width="473" height="169" viewBox="0 0 473 169" fill="none" xmlns="http://www.w3.org/2000/svg">
<g clip-path="url(#clip0_345_7589)">
<path d="M27.0465 19.9554C21.1965 21.459 15.1061 20.7215 9.22754 21.9564C14.9344 18.892 21.0477 20.0755 27.0465 19.9554Z" fill="#FFF8ED"/>
<path d="M59.3354 168.086C60.0109 165.433 62.2776 164.147 64.2238 162.586L64.5844 162.883L59.9594 168.469L59.3354 168.086Z" fill="#FFF8ED"/>
<path d="M73.9263 145.357C74.802 143.962 75.6435 142.55 76.5593 141.172C77.1317 140.321 77.355 140.281 78.7516 140.475C77.4866 142.493 75.5691 143.774 73.9263 145.357Z" fill="#FFF8ED"/>
<path d="M42.9361 59.8085C42.8617 60.8261 42.0088 60.7975 41.3448 61.1177C40.3145 61.6094 39.6276 61.0034 38.8491 60.5974C40.7552 59.7341 41.465 59.5741 42.9361 59.8085Z" fill="#FFF8ED"/>
<path d="M28.4546 108.612C30.1718 109.35 30.8415 107.743 32.284 107.469C31.8947 108.04 31.6085 108.464 31.3567 108.881C30.2691 110.676 30.0516 110.682 28.4546 108.612Z" fill="#FFF8ED"/>
<path d="M106.925 107.184C106.713 106.744 106.616 106.109 106.267 105.915C105.569 105.532 104.916 105.96 104.492 106.561C103.605 107.813 102.855 109.156 101.899 110.346C99.4153 113.444 96.8394 116.463 94.3209 119.533C93.5996 120.419 92.9528 121.368 92.2602 122.312L91.8996 121.323C90.6117 120.985 90.8692 122.643 89.8618 122.889C89.9992 122.169 90.1137 121.546 90.2339 120.917L89.9362 120.774L88.2648 123.061C87.3719 123.061 87.6924 121.443 86.1813 122.523C87.2574 120.945 88.0587 119.779 88.8487 118.607C89.2029 118.205 89.4873 117.747 89.6901 117.252C90.1652 115.308 91.4073 113.822 92.6494 112.387C94.8246 109.78 96.3357 106.789 97.7267 103.731C97.9416 103.057 98.093 102.364 98.1789 101.661C97.5435 101.97 97.1543 102.033 96.9768 102.233C95.2596 104.4 93.1932 106.395 92.0484 108.831C90.9036 111.266 88.9174 112.427 87.3261 114.548C87.7725 113.113 87.847 111.769 88.5396 110.934C89.4783 109.791 89.5298 108.648 89.6844 107.355C89.7817 106.601 90.5201 105.92 91.0009 105.229C91.5733 104.405 92.1457 103.594 92.7181 102.805C93.5424 101.747 93.7313 100.678 92.8841 99.5344C91.0868 99.5973 91.0238 99.4944 91.6191 97.3961C90.3713 96.4642 88.9517 97.9107 87.4978 97.0302C86.519 96.4585 84.8819 96.9159 83.5425 96.9159C83.6283 96.1841 83.8859 95.7725 84.7731 95.8525C86.3072 95.9611 87.847 95.9611 89.381 95.8525C90.2097 95.7915 91.0121 95.5348 91.7221 95.1035C92.7691 94.3695 93.7725 93.5754 94.7273 92.7252C93.3993 90.8443 93.01 90.7757 91.2928 91.8676C90.8864 92.1192 90.1824 92.4107 89.8904 92.2335C88.9402 91.6618 88.6941 92.7023 88.0645 92.9139L89.1005 93.2798L86.685 93.4284C87.1715 92.8567 87.349 92.4851 87.6409 92.3421C89.215 91.5474 89.278 89.758 90.1652 88.5117C90.646 87.8313 90.3655 86.8708 89.484 86.3334C88.9746 86.0247 88.4938 85.6702 87.8298 85.2185L90.6918 82.1313C90.1652 81.651 89.7531 80.9878 89.3409 80.9878C88.1961 80.9878 87.9443 80.2846 87.8126 79.3927C85.855 79.4328 84.5671 80.6619 83.4967 81.8682C81.2929 84.3609 78.5397 86.3105 76.6851 89.1863C75.7005 90.707 73.8574 91.6618 72.4607 92.9367C71.7692 93.6306 71.1139 94.3596 70.4974 95.1207L70.0681 94.8062L72.9301 89.8266C70.4516 88.8204 67.996 89.0376 65.8437 88.6832H73.4453C74.6301 86.442 76.5992 84.3267 76.2729 81.2508L74.2523 81.8682L74.0463 81.5252C75.0938 80.5819 76.1584 79.6557 77.1831 78.6666C77.641 78.2379 78.3908 77.9749 77.9901 77.003C77.8642 76.7114 78.4252 76.1168 78.7057 75.6823C79.0605 75.1106 79.4498 74.6017 79.7875 74.1157C79.1521 73.1781 78.4309 72.7836 77.6868 73.2582C76.2958 74.1329 75.2025 74.11 74.2523 72.6865C74.1264 72.4864 73.7601 72.4464 73.451 72.3091C74.9335 70.6797 76.313 69.1532 77.9615 67.3695C75.9982 66.6777 74.6301 67.1122 73.1705 68.0956C73.4453 66.8378 75.0995 66.2489 74.052 64.9111L75.8551 63.2931L75.7062 62.8415L68.9919 63.6705C72.2203 61.092 76.044 60.3145 79.8676 59.4798C81.9569 59.0167 84.0519 58.5765 86.1641 58.0962C86.4904 58.0219 86.7766 57.7989 86.9883 57.2329L79.4269 57.9876C83.0273 55.9065 87.2059 55.5063 90.875 53.7054L90.7777 53.1794C89.8446 53.2652 88.9002 53.2995 87.9729 53.4596C87.4005 53.5625 86.8281 53.8827 86.2271 54.0313C84.7273 54.4201 83.2849 55.2376 81.6478 54.5401C81.1185 54.4243 80.5682 54.448 80.0508 54.6087C75.6147 55.3863 71.1442 56.0609 66.7538 57.0557C65.4202 57.3304 64.0322 57.1281 62.8329 56.484C62.3454 56.1848 61.7634 56.0787 61.2015 56.1867C60.0769 56.3388 58.9404 56.3848 57.8071 56.3239C57.1603 56.3239 56.5078 56.3239 55.8553 56.3239C55.4775 56.3239 54.9051 56.4897 54.7505 56.3239C53.3767 54.643 51.774 55.3462 50.1312 55.7522C51.9187 54.2575 53.9445 53.0728 56.1243 52.2475C56.8054 51.9674 57.5782 51.9617 57.3778 50.7611C57.2176 49.812 58.328 49.692 59.0035 49.4404C59.8973 49.2068 60.7436 48.8199 61.5049 48.297L56.8112 48.0626L58.8776 45.7757C58.3994 45.5046 57.859 45.362 57.3092 45.362C56.7593 45.362 56.2189 45.5046 55.7408 45.7757C54.0236 46.7362 52.2777 47.2736 50.343 46.1187C49.8965 45.8557 49.0207 46.2102 48.3739 46.3931C47.3035 46.6904 47.315 46.7247 46.0843 46.0901C47.2692 45.1582 49.2554 46.0044 50.0911 44.1348C47.1204 43.2773 44.7849 45.1696 41.9973 45.7471C42.3293 44.1063 41.6024 43.1001 40.5091 42.0252C39.7134 41.242 39.5761 39.7955 39.0151 38.3033L37.4925 37.8917C38.4542 37.1713 39.9653 37.137 40.5091 35.6563C40.2718 35.5605 40.0239 35.4933 39.7707 35.4561C38.706 35.4561 37.544 36.3194 36.6511 34.8844C36.5137 34.6557 35.3861 35.0331 34.5275 34.8844C34.8929 34.5935 35.2752 34.3244 35.6723 34.0783C35.8899 33.995 36.1285 33.983 36.3534 34.044C38.1737 34.4499 39.5303 33.4723 40.8754 32.5289L40.7438 33.8153C43.0334 33.9925 43.4055 33.5981 43.165 31.2026C41.8428 30.728 41.7569 32.346 40.8468 32.5747L41.2475 31.0196C39.3814 29.9105 37.5612 31.3798 35.5234 30.8595C38.6602 28.9557 42.2034 29.4131 45.2543 27.9666C44.5216 27.9209 43.7832 27.8409 43.0506 27.8409C41.9079 27.9283 40.7609 27.9455 39.6161 27.8923C36.7541 27.515 34.2069 28.4126 31.6483 29.5732C29.931 30.3507 28.1509 31.214 26.1589 31.0082C25.7693 30.8782 25.4038 30.685 25.0771 30.4365C26.0959 29.779 26.8801 29.0815 27.796 28.7213C28.8797 28.3432 30.0145 28.1312 31.1617 28.0924C32.6078 27.9837 34.0315 27.6739 35.3918 27.172C37.109 26.6002 38.9693 26.4802 40.7724 26.1943C41.1731 26.1257 41.7111 26.0457 41.4822 26.7661C41.8313 26.8575 42.2206 27.0976 42.5354 27.0233C44.6819 26.5145 46.9715 26.8175 49.0265 25.6969C50.4403 24.9251 52.3407 25.068 53.6057 23.107C52.1461 23.1985 50.9555 23.21 49.7878 23.37C49.0362 23.5174 48.2988 23.7298 47.584 24.0046C45.1686 24.7102 42.6587 25.04 40.1427 24.9823C39.5304 24.9064 38.9092 24.9452 38.311 25.0966C36.279 25.9085 34.8079 25.0337 33.3712 23.6673C35.4433 22.7697 38.0191 24.342 40.0741 22.0722L36.113 21.2204V21.0489H44.9166C44.4014 20.54 44.1668 20.1055 43.8519 20.0369C42.8155 19.7763 41.7546 19.6249 40.6865 19.5853C37.607 19.5853 34.5504 19.5395 31.5281 18.7963C30.7708 18.679 30.0024 18.6502 29.2384 18.7105C25.1686 18.7105 21.0931 18.7105 16.989 18.5333C18.1503 17.6475 19.54 17.1101 20.9958 16.9839C22.1406 16.841 23.4056 16.6981 24.2528 15.2688L21.5968 14.697C21.6598 14.3197 21.7228 13.9595 21.78 13.6051C21.6426 13.5708 21.4823 13.4679 21.3736 13.5022C18.1395 14.6456 14.8138 13.9596 11.5397 13.931C10.2976 13.931 9.06689 13.2506 7.81905 12.9419C7.22528 12.7767 6.60857 12.7092 5.99307 12.7418C4.70005 12.9259 3.38214 12.6851 2.2381 12.0557C1.6199 11.6955 0.761298 11.7527 0 11.4268H11.2764C8.82648 10.1405 6.21631 10.4263 3.61187 10.089C4.14789 9.93133 4.69517 9.81475 5.24895 9.74026C8.92951 9.53444 12.6158 9.30575 16.2964 9.16854C19.0646 9.06757 21.7865 8.42869 24.31 7.2876C21.883 6.47576 19.4503 5.86402 16.8688 6.18419C14.2872 6.50435 11.7171 6.87024 9.13558 7.21327L9.06689 6.74446C10.9387 6.48719 12.799 6.17273 14.6765 5.98406C16.8115 5.76681 18.958 5.64675 21.0988 5.48667C21.3278 5.48667 21.6197 5.52669 21.78 5.41235C23.6747 4.02879 25.6094 5.1951 27.504 5.27514C28.4852 5.34399 29.4708 5.31525 30.4462 5.18937C32.7816 4.82918 35.0999 4.36039 37.8875 3.84584C35.6342 3.07866 33.2505 2.76771 30.8755 2.93111C28.6546 3.00543 26.4336 3.19408 24.2127 3.33701L17.0462 3.78296C21.053 2.23932 24.7279 1.06728 28.6946 0.8729C31.6082 0.72997 34.5103 0.35837 37.4238 0.17542C39.1806 -0.0187679 40.9526 -0.0360215 42.7128 0.12395C48.4083 0.907204 54.0808 1.83913 59.7591 2.75388C63.9976 3.40012 68.2007 4.26068 72.352 5.3323C74.9965 6.03551 77.8241 6.02979 80.5431 6.47573C83.262 6.92167 85.8035 7.52772 88.4079 8.14518C92.3632 9.07708 96.3472 9.90606 100.222 11.0952C104.527 12.4102 108.723 14.0796 113.096 15.6404L112.523 16.6237C113.617 17.7672 114.813 17.5156 115.998 16.8296C118.768 15.3349 121.744 14.256 124.83 13.6279C125.603 13.4507 126.547 12.7018 127.04 14.1482C127.097 14.3255 128.242 14.314 128.757 14.1082C130.548 13.4279 132.191 13.8966 134.195 14.5198L131.768 15.6061V15.9491L133.639 16.2521L130.875 17.4756C131.023 18.0073 131.178 18.539 131.35 19.1336L132.643 19.2479L128.82 22.3981L132.311 23.1585L131.871 24.908L145.265 22.6211L144.939 24.7307C147.308 24.6507 149.438 25.7141 151.807 24.9594C152.499 24.7122 153.243 24.6524 153.965 24.7859C154.687 24.9195 155.361 25.2417 155.917 25.7198C157.103 26.5676 158.359 27.3117 159.672 27.9438C160.588 28.4641 160.983 29.2302 161.39 30.2307C162.294 32.4032 161.962 34.3356 161 36.3194C160.836 36.7537 160.71 37.2013 160.622 37.6573C161.166 37.4967 161.724 37.3876 162.288 37.3314C162.43 37.7002 162.53 38.0837 162.586 38.4748H163.799C163.954 38.8808 164.103 39.2295 164.211 39.6183C165.356 43.3287 165.207 47.1992 165.625 51.0012C165.992 54.3457 166.043 57.7303 167.343 60.9319C167.593 61.8047 167.751 62.7016 167.812 63.6076C169.174 63.7219 169.689 62.7671 170.336 62.0754C172.053 60.223 173.845 58.405 175.488 56.4611C178.791 52.5163 183.044 51.0812 188.018 51.6472C191.286 52.0188 194.583 52.4133 197.577 53.9684C199.025 54.7174 200.439 55.5292 201.12 57.1071C201.538 58.1248 202.191 58.3992 203.204 58.5536C209.609 59.5484 215.413 61.9153 220.33 66.2661C219.214 67.2323 218.04 67.2266 216.649 67.0951C211.726 66.6843 206.785 67.6629 202.391 69.9194C200.925 70.7427 199.679 71.9054 198.756 73.3096C197.646 74.9594 196.761 76.7493 196.123 78.6323C195.076 81.5881 194.24 84.6182 193.421 87.6426C193.135 88.8342 192.979 90.0535 192.958 91.2787C192.869 92.968 192.869 94.6607 192.958 96.3499C193.284 101.461 191.132 105.577 187.806 109.185C184.416 112.952 180.544 116.256 176.289 119.013C174.068 120.414 172.282 122.346 170.565 124.278C168.098 127.011 165.207 129.178 161.55 129.933C159.312 130.396 158.201 131.871 157.142 133.603C156.518 134.638 155.78 135.593 155.127 136.61C154.903 136.989 154.732 137.397 154.618 137.822C154.593 138.051 154.605 138.283 154.652 138.508C154.738 140.412 154.509 142.408 155.007 144.197C155.505 145.986 156.724 147.416 157.623 149.017C157.852 149.417 158.058 149.828 158.31 150.212C158.928 151.138 159.409 152.613 160.233 152.847C161.687 153.259 163.422 153.465 164.904 152.475C164.97 152.482 165.035 152.496 165.099 152.516C165.099 153.79 166.129 153.442 166.816 153.722C165.826 153.613 164.835 153.527 163.851 153.39C161.664 153.076 161.39 153.11 159.844 154.454C159.691 154.602 159.571 154.78 159.49 154.976C159.409 155.173 159.37 155.384 159.375 155.597C159.455 156.822 159.647 158.037 159.947 159.228C160.125 160.063 160.583 160.813 161.244 161.355C161.906 161.896 162.732 162.196 163.588 162.206C165.001 162.303 166.415 162.429 167.749 162.532L169.397 164.007C168.178 163.973 167.056 163.081 165.665 163.624C165.242 163.79 164.475 163.115 163.874 162.806C162.729 162.235 162.42 162.326 161.664 163.853C160.279 161.972 158.545 161.4 156.226 161.749C154.238 161.969 152.24 161.434 150.628 160.251C150.989 159.107 151.567 159.759 152.065 159.959C153.107 160.388 154.109 161.017 155.196 161.223C157.406 161.652 158.407 160.577 158.029 158.41C157.961 158.033 157.829 157.667 157.778 157.266C157.417 154.642 157.423 154.642 154.715 154.642H150.823L150.743 154.196C151.163 154.085 151.596 154.025 152.031 154.019C152.706 154.088 153.37 154.402 154.034 154.408C155.7 154.408 156.415 153.665 156.438 152.012C156.484 148.748 154.498 146.65 152.191 144.757C152.059 144.649 151.682 144.906 151.441 144.872C151.048 144.766 150.665 144.626 150.296 144.454L147.532 147.221C147.091 145.506 148.802 144.643 150.073 143.334C147.995 143.071 147.177 145.215 145.162 145.352C146.879 143.099 149.575 142.945 151.235 141.27C150.302 139.932 149.077 140.006 147.686 140.298C146.396 140.504 145.094 140.626 143.788 140.664C143.485 140.664 143.061 140.75 142.895 140.584C141.498 139.212 140.193 140.184 138.757 140.761L137.658 139.446L135.74 141.407C136.885 138.154 135.345 136.748 131.344 137.302C131.189 137.982 131.046 138.714 130.846 139.435C130.646 140.155 130.422 140.732 130.159 141.504L127.6 141.167C127.519 140.9 127.408 140.643 127.268 140.401C126.891 139.886 126.536 139.097 126.049 138.989C125.307 138.932 124.564 139.089 123.908 139.44C123.545 139.68 123.28 140.044 123.164 140.464C122.764 141.527 122.449 142.619 122.06 143.843H118.654C118.585 140.321 118.408 140.132 116.078 141.07V135.433C115.38 135.341 114.801 135.221 114.212 135.204C112.832 135.164 111.379 135.444 110.073 135.112C107.211 134.386 105.397 135.964 103.548 137.554C102.123 138.783 100.818 140.149 99.4153 141.504L98.3048 140.012C98.1502 140.286 97.9842 140.452 97.9613 140.635C97.8297 141.653 98.2704 142.865 96.8566 143.494C96.599 142.962 95.9236 142.585 96.7936 141.83C97.0913 141.573 96.9539 140.572 96.7307 140.029C96.1559 138.7 95.2049 137.567 93.9946 136.77C93.9144 137.485 93.634 138.12 93.84 138.411C95.2024 140.326 94.5899 142.739 95.666 144.757L92.7296 148.016C91.0124 145.569 90.2396 143.099 91.144 140.012C88.946 141.596 88.6827 145.935 90.8063 150.137C89.5813 151.549 88.3564 153.024 87.057 154.419C86.648 154.767 86.1758 155.033 85.6661 155.203C82.1401 156.798 80.9724 157.901 79.3696 161.331V157.993C77.6524 159.302 76.2443 160.771 76.0039 162.618C75.6834 165.053 74.0749 166.711 73.1419 168.97L71.6021 168.318C73.1133 166.031 74.5385 163.881 75.9467 161.72C76.0096 161.629 75.9066 161.434 75.8207 160.983L72.621 161.52C71.9341 160.537 72.3062 159.702 72.8042 158.919C73.4624 157.878 74.1665 156.878 74.8476 155.854C75.42 154.962 76.5649 154.254 75.3514 152.916C75.048 152.584 75.5517 151.515 75.7005 150.675C74.7446 150.549 74.3496 151.126 73.9146 151.618C72.0429 153.745 70.1654 155.866 68.3165 158.021C67.1717 159.342 67.2118 159.365 65.7006 159.976C65.8952 159.245 65.9067 158.37 66.336 157.804C66.9727 156.863 67.8166 156.081 68.803 155.517C70.104 154.864 71.2081 153.877 72.0028 152.658C72.352 152.167 72.7813 151.738 73.1476 151.252C73.3651 150.955 73.72 150.526 73.657 150.292C73.0846 148.576 74.4298 147.782 75.214 146.741C76.645 144.843 78.139 143.002 79.6215 141.144C80.0794 140.572 80.4343 140.001 79.8734 139.366C81.2414 138.411 82.9758 137.885 83.2677 135.781C83.3536 135.141 84.1435 134.592 84.9277 134.123L84.8762 134.872C87.2116 134.272 93.966 128.177 94.8933 125.645C91.3787 127.766 88.8601 130.624 85.9122 133.197C86.1586 131.766 86.9557 130.488 88.1332 129.635C89.0681 128.859 89.9129 127.981 90.6517 127.017C91.4932 126.039 92.3689 125.102 93.2791 124.113L95.6145 124.616C94.4239 123.118 94.9906 122.214 95.8148 121.185C98.6768 117.686 101.487 114.113 104.315 110.563C104.367 111.135 103.64 111.946 104.653 112.278C105.798 111.535 106.782 110.597 107.967 110.174C110.222 109.356 110.829 107.544 111.516 105.457C110.666 105.292 109.786 105.365 108.975 105.67C108.165 105.975 107.455 106.499 106.925 107.184ZM66.8054 39.3038C64.2124 38.7893 61.711 38.492 59.1695 39.3038C55.9468 40.3043 51.6939 42.1624 50.9497 43.06C53.5943 42.5398 56.2674 42.0881 58.9062 41.4706C61.545 40.8532 64.1608 40.0242 66.8054 39.3038ZM108.808 55.5463C105.517 54.6659 96.3586 55.4549 94.1663 56.8327C99.3752 56.484 104.16 57.2272 108.808 55.5463ZM145.047 28.5441C145.992 29.4817 145.998 29.5846 147.154 29.4931C148.838 29.3957 150.507 29.8647 151.893 30.8252C152.895 31.4541 153.908 32.0716 155.013 32.7519C155.036 32.541 155.036 32.3283 155.013 32.1173C154.509 30.2478 152.844 29.8647 151.332 29.3788C150.325 29.0529 149.409 28.7671 149.317 27.6922L145.047 28.5441ZM85.9695 60.8748C82.93 59.7771 80.6003 60.0801 78.8087 61.4007H80.8407V62.3841L85.9695 60.8748ZM98.3849 61.8238C95.2367 61.4522 92.0885 61.1377 88.9975 62.3955C92.1629 63.0244 95.2596 62.2526 98.3849 61.8181V61.8238ZM91.1326 136.513C89.0147 138.228 86.8567 139.423 85.1967 141.864C87.3661 141.03 90.7719 138.005 91.1326 136.513ZM155.242 35.2046L155.059 35.6391C156.146 37.1313 157.24 38.6178 158.631 40.5159C158.631 39.6583 158.734 39.3096 158.631 39.0923C157.944 37.8402 157.245 36.5939 156.444 35.4218C156.272 35.1874 155.654 35.2675 155.248 35.2046H155.242Z" fill="#FFF8ED"/>
<path d="M452.744 115.635L444.358 101.674V86.3231C444.358 85.3931 443.427 84.4612 441.565 83.5273H455.537C453.671 84.4592 452.744 85.3912 452.744 86.3231V98.9009L456.934 105.882L461.124 98.9009V86.3231C461.124 85.3912 460.197 84.4592 458.331 83.5273H472.286C470.42 84.4612 469.487 85.3931 469.487 86.3231V101.674L461.124 115.635V142.151C461.124 143.085 462.057 144.017 463.923 144.947H449.962C451.828 144.017 452.761 143.085 452.761 142.151L452.744 115.635Z" fill="#FFF8EE"/>
<path d="M427.586 142.153C427.586 143.087 428.517 144.019 430.38 144.948H416.407C418.269 144.019 419.201 143.087 419.201 142.153V91.9045H416.407C413.614 91.9045 411.75 93.7663 410.815 97.4901V86.3245C410.815 85.3926 409.888 84.4607 408.021 83.5288C411.746 83.4945 414.56 83.0295 416.464 82.1338C418.516 81.1392 420.78 80.6603 423.059 80.7388H423.728C426.043 80.6696 428.342 81.1476 430.437 82.1338C432.265 83.0333 435.041 83.4983 438.765 83.5288C436.907 84.4626 435.976 85.3945 435.972 86.3245V97.4673C435.041 93.7473 433.177 91.8854 430.38 91.8816H427.586V142.153Z" fill="#FFF8EE"/>
<path d="M391.25 83.5273H405.229C403.363 84.4592 402.435 85.3912 402.435 86.3231V140.756C402.435 141.688 403.363 142.62 405.229 143.546H391.25C393.117 142.62 394.05 141.69 394.05 140.756V86.3231C394.05 85.3931 393.117 84.4612 391.25 83.5273Z" fill="#FFF8EE"/>
<path d="M368.892 144.949C368.892 146.809 369.824 147.739 371.686 147.739H374.485C376.347 147.739 377.278 146.786 377.278 144.881V126.803H385.664V150.529C385.664 151.463 386.595 152.393 388.457 153.319H388.068C384.523 153.319 381.876 153.786 380.129 154.72C377.907 155.677 375.507 156.153 373.088 156.115C370.703 156.162 368.337 155.686 366.156 154.72C364.328 153.786 361.644 153.319 358.103 153.319H357.713C359.579 152.393 360.507 151.461 360.507 150.529V77.9494C360.507 77.0175 359.579 76.0856 357.713 75.1595C361.438 75.1175 364.252 74.6507 366.156 73.7588C368.208 72.7642 370.471 72.2853 372.75 72.3638H373.42C375.735 72.2946 378.034 72.7726 380.129 73.7588C381.957 74.6583 384.733 75.1252 388.457 75.1595C386.599 76.0856 385.668 77.0156 385.664 77.9494V101.676H377.267V83.478C377.267 81.6561 376.336 80.7432 374.473 80.7394H371.674C369.816 80.7394 368.885 81.6523 368.881 83.478L368.892 144.949Z" fill="url(#paint0_linear_345_7589)"/>
<path d="M316.122 104.578L323.729 119.82V142.151C323.729 143.083 324.657 144.015 326.523 144.947H312.545C314.411 144.017 315.344 143.085 315.344 142.151V119.82L311.543 112.228L306.964 119.82V142.151C306.964 143.085 307.895 144.017 309.757 144.947H295.779C297.641 144.017 298.572 143.085 298.572 142.151V86.3231C298.572 85.3931 297.641 84.4612 295.779 83.5273H309.751C307.893 84.4612 306.962 85.3931 306.958 86.3231V103.069L315.344 89.113V86.3231C315.344 85.3931 314.411 84.4612 312.545 83.5273H326.523C324.657 84.4592 323.729 85.3912 323.729 86.3231V91.903L316.122 104.578Z" fill="#FFF8EE"/>
<path d="M273.421 136.573C273.421 138.431 274.348 139.363 276.214 139.363H279.007C280.873 139.363 281.801 138.414 281.801 136.504V126.785H290.186V142.136C290.186 143.069 291.117 144.001 292.98 144.931H292.59C289.053 144.931 286.407 145.396 284.651 146.326C282.43 147.284 280.03 147.759 277.611 147.721C275.226 147.768 272.859 147.292 270.679 146.326C268.851 145.389 266.168 144.929 262.631 144.948H262.213C264.079 144.018 265.012 143.087 265.012 142.153V86.3245C265.012 85.3945 264.079 84.4626 262.213 83.5288C265.937 83.4945 268.752 83.0295 270.656 82.1338C272.707 81.1392 274.971 80.6603 277.25 80.7388H277.925C280.239 80.6695 282.535 81.1475 284.628 82.1338C286.452 83.0333 289.229 83.4983 292.957 83.5288C291.098 84.4626 290.167 85.3945 290.163 86.3245V101.675H281.801V91.853C281.801 90.0292 280.873 89.1145 279.007 89.1145H276.214C274.348 89.1145 273.421 90.0292 273.421 91.853V136.573Z" fill="#FFF8EE"/>
<path d="M249.66 110.045C250.626 110.045 251.557 109.115 252.454 107.255V121.211C251.526 119.355 250.595 118.425 249.66 118.421L239.878 118.364V136.573C239.878 138.433 240.809 139.363 242.671 139.363H245.47C247.332 139.363 248.264 138.41 248.264 136.504V126.785H256.649V142.136C256.649 143.069 257.58 144.001 259.443 144.931H259.053C255.508 144.931 252.862 145.396 251.114 146.326C248.892 147.284 246.493 147.759 244.074 147.721C241.689 147.769 239.322 147.293 237.142 146.326C235.314 145.396 232.629 144.931 229.088 144.931H228.699C230.565 143.999 231.492 143.068 231.492 142.136V86.3245C231.492 85.3926 230.565 84.4607 228.699 83.5288C232.423 83.4945 235.238 83.0295 237.142 82.1338C239.193 81.1392 241.457 80.6603 243.736 80.7388H244.406C246.72 80.6696 249.019 81.1476 251.114 82.1338C252.938 83.0333 255.714 83.4983 259.443 83.5288C257.584 84.4626 256.653 85.3945 256.649 86.3245V101.675H248.264V91.853C248.264 90.0311 247.332 89.1183 245.47 89.1145H242.671C240.813 89.1145 239.882 90.0273 239.878 91.853V110.045H249.66Z" fill="#FFF8EE"/>
<path d="M206.341 142.153C206.341 143.085 207.268 144.017 209.134 144.949H195.162C197.024 144.019 197.955 143.087 197.955 142.153V86.3246C197.955 85.3946 197.024 84.4627 195.162 83.5289C198.886 83.4946 201.698 83.0296 203.599 82.1339C205.652 81.1386 207.918 80.6597 210.199 80.7389H210.531C214.259 80.7389 218.004 82.6008 221.767 86.3246C223.595 88.1846 224.974 89.1146 225.905 89.1146C224.039 90.0484 223.106 90.9784 223.106 91.9046V107.261C223.106 108.195 222.66 110.055 221.767 112.841L220.256 114.242L221.767 115.637C222.66 118.427 223.106 120.287 223.106 121.217V142.153C223.106 143.087 224.039 144.019 225.905 144.949H211.927C213.793 144.019 214.726 143.087 214.726 142.153V121.159C214.726 119.341 213.793 118.427 211.927 118.427H209.134C207.268 118.427 206.341 119.359 206.341 121.217V142.153ZM211.927 110.045C213.793 110.045 214.726 109.134 214.726 107.312V91.8531C214.726 90.0313 213.793 89.1184 211.927 89.1146H209.134C207.268 89.1146 206.341 90.0293 206.341 91.8531V107.29C206.341 109.148 207.268 110.08 209.134 110.08L211.927 110.045Z" fill="#FFF8EE"/>
<path d="M181.183 136.574V77.9501C181.183 77.0163 180.252 76.0863 178.39 75.1602H192.38C190.521 76.0863 189.59 77.0163 189.586 77.9501V150.53C189.586 151.464 190.517 152.394 192.38 153.32H181.183L175.597 144.95L170.004 153.32H158.825C160.687 152.394 161.619 151.464 161.619 150.53V77.9501C161.619 77.0163 160.687 76.0863 158.825 75.1602H172.798C170.939 76.0863 170.008 77.0163 170.004 77.9501V136.574L175.597 128.198L181.183 136.574Z" fill="url(#paint1_linear_345_7589)"/>
</g>
<defs>
<linearGradient id="paint0_linear_345_7589" x1="373.085" y1="72.3555" x2="373.085" y2="156.118" gradientUnits="userSpaceOnUse">
<stop offset="0.0260417" stop-color="#8F5724"/>
<stop offset="0.276042" stop-color="#D89B47"/>
<stop offset="0.567708" stop-color="#F8E190"/>
<stop offset="1" stop-color="#B5832D"/>
</linearGradient>
<linearGradient id="paint1_linear_345_7589" x1="175.602" y1="75.1601" x2="175.602" y2="153.32" gradientUnits="userSpaceOnUse">
<stop offset="0.0260417" stop-color="#8F5724"/>
<stop offset="0.276042" stop-color="#D89B47"/>
<stop offset="0.567708" stop-color="#F8E190"/>
<stop offset="1" stop-color="#B5832D"/>
</linearGradient>
<clipPath id="clip0_345_7589">
<rect width="472.274" height="169" fill="white" transform="translate(0.0288086)"/>
</clipPath>
</defs>
</svg>
