<svg width="35" height="35" viewBox="0 0 35 35" fill="none" xmlns="http://www.w3.org/2000/svg">
<path d="M17.4997 0.699219C8.22121 0.699219 0.699707 8.22072 0.699707 17.4992C0.699707 26.7777 8.22121 34.2992 17.4997 34.2992C26.7782 34.2992 34.2997 26.7777 34.2997 17.4992C34.2997 8.22072 26.7782 0.699219 17.4997 0.699219ZM21.4792 12.3087H18.954C18.6547 12.3087 18.3222 12.7025 18.3222 13.2257V15.0492H21.481L21.0032 17.6497H18.3222V25.4565H15.342V17.6497H12.6382V15.0492H15.342V13.5197C15.342 11.3252 16.8645 9.54197 18.954 9.54197H21.4792V12.3087Z" fill="url(#paint0_linear_345_8304)"/>
<defs>
<linearGradient id="paint0_linear_345_8304" x1="17.4997" y1="0.699214" x2="17.4997" y2="34.2992" gradientUnits="userSpaceOnUse">
<stop offset="0.0260417" stop-color="#8F5724"/>
<stop offset="0.276042" stop-color="#D89B47"/>
<stop offset="0.567708" stop-color="#F8E190"/>
<stop offset="1" stop-color="#B5832D"/>
</linearGradient>
</defs>
</svg>
