<svg width="35" height="35" viewBox="0 0 35 35" fill="none" xmlns="http://www.w3.org/2000/svg">
<path d="M22.7497 17.4992C22.7497 18.8916 22.1966 20.227 21.212 21.2115C20.2275 22.1961 18.8921 22.7492 17.4997 22.7492C16.1073 22.7492 14.772 22.1961 13.7874 21.2115C12.8028 20.227 12.2497 18.8916 12.2497 17.4992C12.2497 17.2 12.2812 16.9077 12.3355 16.6242H10.4997V23.619C10.4997 24.1055 10.8935 24.4992 11.38 24.4992H23.6212C23.8544 24.4988 24.0778 24.4058 24.2425 24.2408C24.4072 24.0758 24.4997 23.8521 24.4997 23.619V16.6242H22.664C22.7182 16.9077 22.7497 17.2 22.7497 17.4992ZM17.4997 20.9992C17.9594 20.9991 18.4147 20.9084 18.8394 20.7324C19.2641 20.5564 19.6499 20.2984 19.9749 19.9732C20.2999 19.6481 20.5577 19.2621 20.7336 18.8373C20.9094 18.4125 20.9998 17.9572 20.9997 17.4975C20.9996 17.0377 20.9089 16.5825 20.7329 16.1578C20.5568 15.7331 20.2989 15.3472 19.9737 15.0222C19.6485 14.6972 19.2625 14.4395 18.8378 14.2636C18.413 14.0878 17.9577 13.9974 17.498 13.9975C16.5695 13.9977 15.6791 14.3668 15.0227 15.0235C14.3663 15.6802 13.9977 16.5707 13.998 17.4992C13.9982 18.4277 14.3673 19.3181 15.024 19.9745C15.6807 20.6308 16.5712 20.9995 17.4997 20.9992ZM21.6997 13.8242H23.798C23.9374 13.8242 24.0711 13.769 24.1698 13.6706C24.2685 13.5721 24.3242 13.4386 24.3247 13.2992V11.201C24.3247 11.0613 24.2692 10.9273 24.1704 10.8285C24.0716 10.7297 23.9377 10.6742 23.798 10.6742H21.6997C21.56 10.6742 21.426 10.7297 21.3272 10.8285C21.2285 10.9273 21.173 11.0613 21.173 11.201V13.2992C21.1747 13.588 21.411 13.8242 21.6997 13.8242ZM17.4997 0.699219C13.0441 0.699219 8.77092 2.46921 5.62031 5.61982C2.4697 8.77044 0.699707 13.0436 0.699707 17.4992C0.699707 21.9549 2.4697 26.228 5.62031 29.3786C8.77092 32.5292 13.0441 34.2992 17.4997 34.2992C19.7059 34.2992 21.8905 33.8647 23.9288 33.0204C25.9671 32.1761 27.8191 30.9386 29.3791 29.3786C30.9391 27.8186 32.1766 25.9666 33.0209 23.9283C33.8652 21.89 34.2997 19.7054 34.2997 17.4992C34.2997 15.293 33.8652 13.1084 33.0209 11.0701C32.1766 9.03187 30.9391 7.17985 29.3791 5.61982C27.8191 4.0598 25.9671 2.82232 23.9288 1.97804C21.8905 1.13376 19.7059 0.699219 17.4997 0.699219ZM26.2497 24.305C26.2497 25.3742 25.3747 26.2492 24.3055 26.2492H10.694C9.62471 26.2492 8.74971 25.3742 8.74971 24.305V10.6935C8.74971 9.62422 9.62471 8.74922 10.694 8.74922H24.3055C25.3747 8.74922 26.2497 9.62422 26.2497 10.6935V24.305Z" fill="url(#paint0_linear_345_8306)"/>
<defs>
<linearGradient id="paint0_linear_345_8306" x1="17.4997" y1="0.699214" x2="17.4997" y2="34.2992" gradientUnits="userSpaceOnUse">
<stop offset="0.0260417" stop-color="#8F5724"/>
<stop offset="0.276042" stop-color="#D89B47"/>
<stop offset="0.567708" stop-color="#F8E190"/>
<stop offset="1" stop-color="#B5832D"/>
</linearGradient>
</defs>
</svg>
