<svg width="35" height="35" viewBox="0 0 35 35" fill="none" xmlns="http://www.w3.org/2000/svg">
<path d="M17.4997 0.699219C8.22121 0.699219 0.699707 8.22072 0.699707 17.4992C0.699707 26.7777 8.22121 34.2992 17.4997 34.2992C26.7782 34.2992 34.2997 26.7777 34.2997 17.4992C34.2997 8.22072 26.7782 0.699219 17.4997 0.699219ZM18.6495 21.4805C17.5715 21.3982 17.12 20.8645 16.2765 20.3535C15.8127 22.7877 15.2457 25.1222 13.5657 26.342C13.046 22.66 14.3252 19.8985 14.9202 16.9637C13.907 15.2575 15.041 11.8257 17.1795 12.6692C19.8097 13.7122 14.901 19.013 18.1962 19.6762C21.6367 20.3657 23.042 13.7052 20.9087 11.5422C17.8252 8.41497 11.9365 11.4705 12.661 15.947C12.836 17.0407 13.9682 17.3732 13.1125 18.8835C11.1402 18.446 10.5505 16.8902 10.6275 14.8165C10.7482 11.4215 13.6777 9.04322 16.6142 8.71597C20.3295 8.30297 23.8155 10.0792 24.2985 13.5757C24.8392 17.5202 22.6202 21.7885 18.6495 21.4805Z" fill="url(#paint0_linear_345_8308)"/>
<defs>
<linearGradient id="paint0_linear_345_8308" x1="17.4997" y1="0.699214" x2="17.4997" y2="34.2992" gradientUnits="userSpaceOnUse">
<stop offset="0.0260417" stop-color="#8F5724"/>
<stop offset="0.276042" stop-color="#D89B47"/>
<stop offset="0.567708" stop-color="#F8E190"/>
<stop offset="1" stop-color="#B5832D"/>
</linearGradient>
</defs>
</svg>
